<svg width="32" height="31" viewBox="0 0 32 31" fill="none" xmlns="http://www.w3.org/2000/svg">
<path fill-rule="evenodd" clip-rule="evenodd" d="M12.4286 20.7143C10.2983 20.7143 8.57143 22.4412 8.57143 24.5714C8.57143 25.2815 9.14706 25.8571 9.85714 25.8571H22.7143C23.4244 25.8571 24 25.2815 24 24.5714C24 22.4412 22.2731 20.7143 20.1429 20.7143H12.4286ZM6 24.5714C6 21.021 8.87817 18.1428 12.4286 18.1428H20.1429C23.6933 18.1428 26.5714 21.021 26.5714 24.5714C26.5714 26.7016 24.8445 28.4285 22.7143 28.4285H9.85714C7.7269 28.4285 6 26.7016 6 24.5714Z" fill="white"/>
<path fill-rule="evenodd" clip-rule="evenodd" d="M16.2857 5.28568C14.1555 5.28568 12.4286 7.01258 12.4286 9.14282C12.4286 11.2731 14.1555 13 16.2857 13C18.416 13 20.1429 11.2731 20.1429 9.14282C20.1429 7.01258 18.416 5.28568 16.2857 5.28568ZM9.85718 9.14282C9.85718 5.59242 12.7353 2.71425 16.2857 2.71425C19.8362 2.71425 22.7143 5.59242 22.7143 9.14282C22.7143 12.6932 19.8362 15.5714 16.2857 15.5714C12.7353 15.5714 9.85718 12.6932 9.85718 9.14282Z" fill="white"/>
</svg>
