<svg width="32" height="31" viewBox="0 0 32 31" fill="none" xmlns="http://www.w3.org/2000/svg">
<path fill-rule="evenodd" clip-rule="evenodd" d="M13.7451 3.85715H18.4744C19.6338 3.85714 20.5691 3.85713 21.3302 3.90906C22.1129 3.96247 22.805 4.07505 23.4603 4.34649C25.0355 4.99895 26.2869 6.25043 26.9394 7.82561C27.2108 8.48094 27.3234 9.17301 27.3768 9.95568C27.4288 10.7168 27.4288 11.6521 27.4287 12.8115V12.9028C27.4288 14.0622 27.4288 14.9975 27.3768 15.7586C27.3234 16.5413 27.2108 17.2334 26.9394 17.8887C26.2869 19.4639 25.0355 20.7153 23.4603 21.3678C22.805 21.6392 22.1129 21.7518 21.3302 21.8052C20.5691 21.8572 19.6338 21.8572 18.4744 21.8571H15.1226C14.5317 21.8571 14.4139 21.8631 14.3178 21.8824C14.0939 21.9275 13.886 22.0315 13.7156 22.1836C13.6424 22.2488 13.567 22.3395 13.2124 22.8123L13.1847 22.8492C12.4059 23.8876 11.7853 24.7151 11.2775 25.3133C10.8001 25.8757 10.2606 26.4412 9.61657 26.7074C7.84457 27.44 5.80354 26.7596 4.82545 25.1104C4.46999 24.511 4.37767 23.7348 4.33319 22.9985C4.28588 22.2153 4.28588 21.1809 4.28589 19.883V13.3164C4.28588 11.923 4.28587 10.799 4.36023 9.88892C4.43679 8.95182 4.59855 8.12873 4.98656 7.36721C5.60289 6.1576 6.58634 5.17415 7.79595 4.55782C8.55747 4.16981 9.38057 4.00805 10.3177 3.93149C11.2278 3.85712 12.3517 3.85713 13.7451 3.85715ZM10.5271 6.49437C9.74898 6.55794 9.30195 6.67645 8.96335 6.84898C8.23759 7.21878 7.64752 7.80884 7.27772 8.53461C7.1052 8.87321 6.98669 9.32024 6.92312 10.0983C6.85832 10.8914 6.85732 11.9101 6.85732 13.3714V19.8367C6.85732 21.1913 6.85789 22.1473 6.89994 22.8435C6.92075 23.1879 6.94983 23.43 6.98401 23.6006C7.01298 23.7452 7.03824 23.7993 7.03964 23.8028C7.3658 24.3482 8.04161 24.5735 8.62975 24.3329C8.63294 24.3309 8.68566 24.3028 8.79562 24.2045C8.92531 24.0885 9.09383 23.9123 9.31712 23.6492C9.76846 23.1175 10.3426 22.353 11.1553 21.2694C11.1739 21.2445 11.1924 21.2199 11.2107 21.1955C11.4785 20.8377 11.7139 20.5234 12.0034 20.265C12.5148 19.8087 13.1384 19.4969 13.8102 19.3616C14.1907 19.285 14.5833 19.2853 15.0303 19.2857C15.0608 19.2857 15.0916 19.2857 15.1226 19.2857H18.4287C19.6445 19.2857 20.4919 19.285 21.1552 19.2398C21.8069 19.1953 22.1865 19.1121 22.4762 18.9921C23.4213 18.6006 24.1722 17.8497 24.5637 16.9046C24.6837 16.6149 24.7669 16.2353 24.8114 15.5836C24.8566 14.9203 24.8573 14.0729 24.8573 12.8571C24.8573 11.6414 24.8566 10.794 24.8114 10.1307C24.7669 9.47898 24.6837 9.09943 24.5637 8.80965C24.1722 7.86455 23.4213 7.11366 22.4762 6.72218C22.1865 6.60215 21.8069 6.519 21.1552 6.47453C20.4919 6.42927 19.6445 6.42858 18.4287 6.42858H13.8002C12.3388 6.42858 11.3201 6.42958 10.5271 6.49437Z" fill="white"/>
</svg>
