<svg width="32" height="31" viewBox="0 0 32 31" fill="none" xmlns="http://www.w3.org/2000/svg">
<path fill-rule="evenodd" clip-rule="evenodd" d="M19.4601 2.71354C18.8652 2.57072 18.2483 2.57102 17.4319 2.57141L13.1184 2.57145C12.0834 2.57143 11.2293 2.57142 10.5334 2.62827C9.81074 2.68731 9.14641 2.81404 8.52241 3.13198C7.55472 3.62505 6.76796 4.4118 6.2749 5.3795C5.95695 6.0035 5.83022 6.66783 5.77118 7.39053C5.71433 8.08635 5.71434 8.94052 5.71436 9.97547V20.8817C5.71434 21.9166 5.71433 22.7708 5.77118 23.4667C5.83022 24.1893 5.95695 24.8537 6.2749 25.4777C6.76796 26.4454 7.55472 27.2321 8.52241 27.7252C9.14641 28.0431 9.81074 28.1699 10.5334 28.2289C11.2293 28.2858 12.0834 28.2857 13.1184 28.2857H18.8818C19.9167 28.2857 20.7709 28.2858 21.4667 28.2289C22.1894 28.1699 22.8537 28.0431 23.4777 27.7252C24.4454 27.2321 25.2322 26.4454 25.7252 25.4777C26.0432 24.8537 26.1699 24.1893 26.229 23.4667C26.2858 22.7708 26.2858 21.9166 26.2858 20.8817L26.2858 11.4253C26.2862 10.6089 26.2865 9.99201 26.1437 9.39712C26.0177 8.87236 25.8099 8.37071 25.5279 7.91056C25.2083 7.38892 24.7719 6.95293 24.1943 6.37591L22.4813 4.66294C21.9043 4.08537 21.4683 3.64896 20.9467 3.3293C20.4865 3.04732 19.9849 2.83953 19.4601 2.71354ZM17.2858 5.14287H13.1715C12.0702 5.14287 11.3215 5.14387 10.7428 5.19116C10.1792 5.23721 9.8909 5.32069 9.68981 5.42314C9.20596 5.66968 8.81259 6.06305 8.56605 6.5469C8.4636 6.74798 8.38012 7.03625 8.33407 7.59992C8.28679 8.17861 8.28579 8.92727 8.28579 10.0286V20.8286C8.28579 21.9299 8.28679 22.6786 8.33407 23.2573C8.38012 23.8209 8.4636 24.1092 8.56605 24.3103C8.81259 24.7941 9.20596 25.1875 9.68981 25.434C9.8909 25.5365 10.1792 25.62 10.7428 25.666C11.3215 25.7133 12.0702 25.7143 13.1715 25.7143H18.8286C19.93 25.7143 20.6786 25.7133 21.2573 25.666C21.821 25.62 22.1092 25.5365 22.3103 25.434C22.7942 25.1875 23.1876 24.7941 23.4341 24.3103C23.5365 24.1092 23.62 23.8209 23.6661 23.2573C23.7134 22.6786 23.7144 21.9299 23.7144 20.8286V11.5714H21.1429C19.0127 11.5714 17.2858 9.84454 17.2858 7.7143V5.14287ZM23.1486 9.00001C22.9941 8.81731 22.7474 8.56557 22.2834 8.10159L20.7556 6.57387C20.2917 6.10988 20.0399 5.86313 19.8572 5.70862V7.7143C19.8572 8.42438 20.4328 9.00001 21.1429 9.00001H23.1486Z" fill="white"/>
</svg>
