<svg width="84" height="84" viewBox="0 0 84 84" fill="none" xmlns="http://www.w3.org/2000/svg">
<path d="M42.0002 7.00006C37.404 7.00006 32.8527 7.90536 28.6063 9.66428C24.3599 11.4232 20.5016 14.0013 17.2515 17.2513C10.6877 23.8151 7.00024 32.7175 7.00024 42.0001C7.00024 57.4701 17.0452 70.5951 30.9402 75.2501C32.6902 75.5301 33.2502 74.4451 33.2502 73.5001V67.5851C23.5552 69.6851 21.4902 62.8951 21.4902 62.8951C19.8802 58.8351 17.6052 57.7501 17.6052 57.7501C14.4202 55.5801 17.8502 55.6501 17.8502 55.6501C21.3502 55.8951 23.2052 59.2551 23.2052 59.2551C26.2502 64.5751 31.3952 63.0001 33.3902 62.1601C33.7052 59.8851 34.6152 58.3451 35.5952 57.4701C27.8252 56.5951 19.6702 53.5851 19.6702 40.2501C19.6702 36.3651 21.0002 33.2501 23.2752 30.7651C22.9252 29.8901 21.7002 26.2501 23.6252 21.5251C23.6252 21.5251 26.5652 20.5801 33.2502 25.0951C36.0152 24.3251 39.0252 23.9401 42.0002 23.9401C44.9752 23.9401 47.9852 24.3251 50.7502 25.0951C57.4352 20.5801 60.3752 21.5251 60.3752 21.5251C62.3002 26.2501 61.0752 29.8901 60.7252 30.7651C63.0002 33.2501 64.3302 36.3651 64.3302 40.2501C64.3302 53.6201 56.1402 56.5601 48.3352 57.4351C49.5952 58.5201 50.7502 60.6551 50.7502 63.9101V73.5001C50.7502 74.4451 51.3102 75.5651 53.0952 75.2501C66.9902 70.5601 77.0002 57.4701 77.0002 42.0001C77.0002 37.4038 76.0949 32.8525 74.336 28.6061C72.5771 24.3597 69.999 20.5014 66.749 17.2513C63.4989 14.0013 59.6406 11.4232 55.3942 9.66428C51.1478 7.90536 46.5965 7.00006 42.0002 7.00006Z" fill="white"/>
</svg>
