<svg width="31" height="31" viewBox="0 0 31 31" fill="none" xmlns="http://www.w3.org/2000/svg">
<path fill-rule="evenodd" clip-rule="evenodd" d="M16.0572 6.50575C15.6446 6.40173 15.2126 6.40173 14.8 6.50575C14.3893 6.60929 13.9743 6.8781 12.6002 7.85367L8.48591 10.7748C7.47146 11.495 7.1825 11.7152 6.98032 11.9718C6.77739 12.2293 6.62558 12.5233 6.53307 12.8379C6.44091 13.1513 6.42861 13.5144 6.42861 14.7585V19.5429C6.42861 20.6442 6.42961 21.3928 6.47689 21.9715C6.52294 22.5352 6.60642 22.8235 6.70888 23.0246C6.95541 23.5084 7.34879 23.9018 7.83263 24.1483C8.03372 24.2508 8.32198 24.3342 8.88566 24.3803C9.46434 24.4276 10.213 24.4286 11.3143 24.4286H19.5429C20.6442 24.4286 21.3929 24.4276 21.9716 24.3803C22.5352 24.3342 22.8235 24.2508 23.0246 24.1483C23.5084 23.9018 23.9018 23.5084 24.1483 23.0246C24.2508 22.8235 24.3343 22.5352 24.3803 21.9715C24.4276 21.3928 24.4286 20.6442 24.4286 19.5429V14.7585C24.4286 13.5144 24.4163 13.1513 24.3241 12.8379C24.2316 12.5233 24.0798 12.2293 23.8769 11.9718C23.6747 11.7152 23.3858 11.495 22.3713 10.7748L18.257 7.85367C16.8829 6.8781 16.4679 6.60929 16.0572 6.50575ZM14.1714 4.01234C14.9966 3.8043 15.8606 3.8043 16.6858 4.01234C17.6253 4.24918 18.457 4.84063 19.5618 5.62631C19.6223 5.66929 19.6835 5.71285 19.7457 5.75696L23.8599 8.67804C23.905 8.71002 23.9494 8.74155 23.9933 8.77267C24.8154 9.35559 25.4359 9.79561 25.8966 10.3803C26.3025 10.8953 26.6061 11.4833 26.7911 12.1124C27.0011 12.8265 27.0007 13.5872 27.0001 14.595C27.0001 14.6488 27 14.7033 27 14.7585V19.596C27.0001 20.6309 27.0001 21.4851 26.9432 22.1809C26.8842 22.9036 26.7574 23.568 26.4395 24.192C25.9464 25.1597 25.1597 25.9464 24.192 26.4395C23.568 26.7574 22.9037 26.8841 22.181 26.9432C21.4851 27 20.631 27 19.596 27H11.2612C10.2262 27 9.37208 27 8.67626 26.9432C7.95356 26.8841 7.28923 26.7574 6.66523 26.4395C5.69754 25.9464 4.91078 25.1597 4.41772 24.192C4.09977 23.568 3.97305 22.9036 3.914 22.1809C3.85715 21.4851 3.85716 20.6309 3.85718 19.596L3.85718 14.7585C3.85718 14.7033 3.85715 14.6488 3.85712 14.595C3.85653 13.5872 3.85609 12.8265 4.06611 12.1124C4.25112 11.4833 4.55474 10.8953 4.9606 10.3803C5.42133 9.79561 6.04184 9.35559 6.86388 8.77267C6.90777 8.74155 6.95223 8.71002 6.99728 8.67804L11.1116 5.75695C11.1737 5.71285 11.2349 5.66929 11.2954 5.62632C12.4002 4.84063 13.2319 4.24918 14.1714 4.01234Z" fill="#F2F5F6"/>
</svg>
