<svg width="32" height="31" viewBox="0 0 32 31" fill="none" xmlns="http://www.w3.org/2000/svg">
<path fill-rule="evenodd" clip-rule="evenodd" d="M9.92198 14.1429H22.3639C23.0417 14.1428 23.6264 14.1428 24.108 14.1822C24.6163 14.2237 25.1219 14.3154 25.6084 14.5633C26.3341 14.9331 26.9242 15.5231 27.294 16.2489C27.5419 16.7354 27.6336 17.2409 27.6751 17.7492C27.7144 18.2308 27.7144 18.8155 27.7144 19.4933V21.6496C27.7144 22.3273 27.7144 22.912 27.6751 23.3936C27.6336 23.9019 27.5419 24.4075 27.294 24.894C26.9242 25.6197 26.3341 26.2098 25.6084 26.5796C25.1219 26.8275 24.6163 26.9192 24.108 26.9607C23.6264 27 23.0417 27 22.3639 27H9.92201C9.24423 27 8.65953 27 8.17793 26.9607C7.66963 26.9192 7.16406 26.8275 6.67757 26.5796C5.9518 26.2098 5.36174 25.6197 4.99194 24.894C4.74406 24.4075 4.65237 23.9019 4.61084 23.3936C4.57149 22.912 4.57151 22.3273 4.57153 21.6496V19.4933C4.57151 18.8155 4.57149 18.2308 4.61084 17.7492C4.65237 17.2409 4.74406 16.7354 4.99194 16.2489C5.36174 15.5231 5.9518 14.9331 6.67757 14.5633C7.16406 14.3154 7.66963 14.2237 8.17793 14.1822C8.65952 14.1428 9.24422 14.1428 9.92198 14.1429ZM8.38732 16.745C8.03804 16.7736 7.90855 16.822 7.84498 16.8544C7.60305 16.9777 7.40636 17.1744 7.2831 17.4163C7.25071 17.4799 7.20227 17.6094 7.17373 17.9586C7.14396 18.3229 7.14296 18.8016 7.14296 19.5429V21.6C7.14296 22.3413 7.14396 22.8199 7.17373 23.1842C7.20227 23.5335 7.25071 23.663 7.2831 23.7266C7.40636 23.9685 7.60305 24.1652 7.84498 24.2884C7.90855 24.3208 8.03804 24.3693 8.38732 24.3978C8.75162 24.4276 9.23025 24.4286 9.97154 24.4286H22.3144C23.0557 24.4286 23.5343 24.4276 23.8986 24.3978C24.2479 24.3693 24.3774 24.3208 24.441 24.2884C24.6829 24.1652 24.8796 23.9685 25.0028 23.7266C25.0352 23.663 25.0837 23.5335 25.1122 23.1842C25.142 22.8199 25.143 22.3413 25.143 21.6V19.5429C25.143 18.8016 25.142 18.3229 25.1122 17.9586C25.0837 17.6094 25.0352 17.4799 25.0028 17.4163C24.8796 17.1744 24.6829 16.9777 24.441 16.8544C24.3774 16.822 24.2479 16.7736 23.8986 16.745C23.5343 16.7153 23.0557 16.7143 22.3144 16.7143H9.97154C9.23025 16.7143 8.75162 16.7153 8.38732 16.745Z" fill="white"/>
<path d="M7.14294 10.2857C7.14294 9.57563 7.71858 9 8.42866 9H23.8572C24.5673 9 25.1429 9.57563 25.1429 10.2857C25.1429 10.9958 24.5673 11.5714 23.8572 11.5714H8.42866C7.71858 11.5714 7.14294 10.9958 7.14294 10.2857Z" fill="white"/>
<path d="M9.71436 5.14286C9.71436 4.43278 10.29 3.85715 11.0001 3.85715H21.2858C21.9959 3.85715 22.5715 4.43278 22.5715 5.14286C22.5715 5.85294 21.9959 6.42858 21.2858 6.42858H11.0001C10.29 6.42858 9.71436 5.85294 9.71436 5.14286Z" fill="white"/>
</svg>
